<?xml version="1.0" encoding="utf-8"?>
<!-- Svg Vector Icons : http://www.onlinewebfonts.com/icon -->
<!DOCTYPE svg PUBLIC "-//W3C//DTD SVG 1.1//EN" "http://www.w3.org/Graphics/SVG/1.1/DTD/svg11.dtd">
<svg version="1.1" xmlns="http://www.w3.org/2000/svg" xmlns:xlink="http://www.w3.org/1999/xlink" x="0px" y="0px" viewBox="0 0 1000 1000" enable-background="new 0 0 1000 1000" xml:space="preserve">
<metadata> Svg Vector Icons : http://www.onlinewebfonts.com/icon </metadata>
<g><g transform="translate(0.000000,511.000000) scale(0.100000,-0.100000)"><path d="M4647.4,4658.5c-659.9-81.7-1260.2-384-1708.2-858.5c-682-726.1-902.7-1688.3-622.4-2716.8c130.2-476.7,348.7-900.4,697.4-1355.1c437-565,648.8-990.9,704-1399.2c19.9-143.4,30.9-174.4,97.1-238.4c41.9-44.1,110.3-83.9,161.1-94.9c112.6-26.5,1891.4-26.5,2003.9,0c50.8,11,119.2,50.8,161.1,94.9c66.2,64,77.2,94.9,97.1,238.4c55.2,408.3,245,787.9,710.6,1414.7c410.5,553.9,642.2,1052.7,757,1639.8c55.2,275.9,55.2,814.4,0,1070.4c-238.3,1107.9-1066,1933.3-2169.5,2162.8C5291.9,4667.3,4874.7,4687.2,4647.4,4658.5z M5536.8,3923.6c381.8-112.6,637.8-260.4,915.9-529.7c262.6-253.8,459-576,558.4-929.1c66.2-225.1,79.5-646.6,33.1-920.3c-75-439.2-289.1-929.1-571.6-1302.1C6051-313.8,5766.4-808.2,5658.2-1170.1l-50.8-172.1h-629h-629l-55.2,181C4188.4-801.5,3897.1-294,3543.9,151.9c-377.4,474.5-602.5,1008.6-664.3,1564.8c-90.5,838.6,364.2,1664,1127.8,2050.3c350.9,176.6,615.7,234,1037.3,222.9C5283,3983.1,5380.1,3969.9,5536.8,3923.6z"/><path d="M438.7,3700.7c-125.8-53-174.4-209.7-99.3-326.6c28.7-48.6,1306.5-971.1,1322-955.6c2.2,2.2,24.3,92.7,48.5,200.8c24.3,110.3,50.8,220.7,57.4,245c13.2,41.9-55.2,97.1-540.7,437c-306.8,216.3-580.4,399.5-611.3,412.7C544.7,3740.4,524.8,3738.2,438.7,3700.7z"/><path d="M9359.3,3707.3c-24.3-13.2-300.1-203-613.5-421.5c-487.8-342.1-567.2-406.1-558.4-445.8c8.8-24.3,30.9-130.2,53-236.1c19.9-108.1,48.6-194.2,61.8-194.2c15.5,0,178.8,108.1,364.2,238.3c187.6,130.2,459.1,320,604.7,421.5c377.4,264.8,408.3,295.7,408.3,421.5c0,72.8-13.2,117-46.3,152.3C9553.5,3727.1,9443.2,3753.6,9359.3,3707.3z"/><path d="M8302.1,1628.3c-6.6-37.5-22.1-141.3-35.3-231.7c-13.2-88.3-19.9-165.5-17.6-169.9c4.4-2.2,324.4-61.8,710.6-128c598.1-106,717.3-121.4,781.3-99.3c81.7,26.5,158.9,130.2,158.9,214.1c0,72.8-57.4,174.4-117,207.5c-26.5,13.2-368.6,81.7-759.2,150.1L8311,1694.5L8302.1,1628.3z"/><path d="M884.5,1559.9c-648.8-117-664.3-119.2-721.7-187.6c-112.5-123.6-68.4-309,88.3-373c53-22.1,167.7-8.8,752.6,94.9c379.6,66.2,693,123.6,695.2,128c4.4,4.4-8.8,108.1-26.5,233.9c-30.9,203-37.5,225.1-79.5,222.9C1566.5,1676.9,1248.7,1623.9,884.5,1559.9z"/><path d="M8002,454.2c-41.9-105.9-86.1-214.1-97.1-240.6c-15.4-41.9,37.5-130.2,370.8-602.5c214.1-304.6,417.1-573.8,448-600.3c75-57.4,203-57.4,278.1,0c75,59.6,112.6,172.1,81.7,253.8c-26.5,70.6-871.8,1277.8-935.8,1339.6c-24.3,22.1-48.5,39.7-55.2,39.7C8085.9,644,8044,557.9,8002,454.2z"/><path d="M1661.4,363.7C933.1-664.7,906.6-706.7,906.6-808.2c0-81.7,11-105.9,72.8-161.1c81.7-72.8,205.3-86.1,284.7-30.9c24.3,17.7,218.5,280.3,432.6,582.6L2085.1,132l-103.7,245c-57.4,134.6-110.3,245-119.2,245C1853.4,621.9,1762.9,505,1661.4,363.7z"/><path d="M4056-2644.4c-39.7-24.3-81.7-70.6-92.7-101.5c-13.2-30.9-22.1-317.8-22.1-651.1c0-655.5,6.6-695.2,132.4-759.2c39.7-19.9,123.6-33.1,225.1-33.1h161.1l110.4-119.2c103.7-110.4,119.2-121.4,240.6-134.6c169.9-22.1,403.9,0,470.1,44.1c28.7,19.9,88.3,75,132.4,123.6c77.2,86.1,79.4,86.1,242.8,86.1c192,0,273.7,37.5,326.6,145.7c48.6,103.7,48.6,1194,0,1297.7c-70.6,145.7-68.4,145.7-1008.6,145.7C4168.5-2600.2,4124.4-2602.4,4056-2644.4z"/></g></g>
</svg>